<svg viewBox="0 0 500 500" xmlns="http://www.w3.org/2000/svg" fill-rule="evenodd" clip-rule="evenodd" stroke-linejoin="round" stroke-miterlimit="2"><path fill="#c9e265" d="M0 0h500v500H0z"/><path d="M225.121 425.89l-30.5 36.625h-8.625l30.5-36.75-30.5-36.625 8.625-.125 30.5 36.875z" fill="#ff5757" fill-rule="nonzero"/><path d="M229.251 425.89l-30.5 36.625h-8.625l30.5-36.75-30.5-36.625 8.625-.125 30.5 36.875z" fill="#ff5757" fill-rule="nonzero"/><path d="M233.38 425.89l-30.5 36.625h-8.625l30.5-36.75-30.5-36.625 8.625-.125 30.5 36.875z" fill="#ff5757" fill-rule="nonzero"/><path d="M237.51 425.89l-30.5 36.625h-8.625l30.5-36.75-30.5-36.625 8.625-.125 30.5 36.875z" fill="#ff5757" fill-rule="nonzero"/><path d="M241.64 425.89l-30.5 36.625h-8.625l30.5-36.75-30.5-36.625 8.625-.125 30.5 36.875z" fill="#ff5757" fill-rule="nonzero"/><path d="M245.77 425.89l-30.5 36.625h-8.625l30.5-36.75-30.5-36.625 8.625-.125 30.5 36.875z" fill="#ff5757" fill-rule="nonzero"/><path d="M249.9 425.89l-30.5 36.625h-8.625l30.5-36.75-30.5-36.625 8.625-.125 30.5 36.875z" fill="#ff5757" fill-rule="nonzero"/><path d="M254.03 425.89l-30.5 36.625h-8.625l30.5-36.75-30.5-36.625 8.625-.125 30.5 36.875z" fill="#ff5757" fill-rule="nonzero"/><path d="M258.16 425.89l-30.5 36.625h-8.625l30.5-36.75-30.5-36.625 8.625-.125 30.5 36.875z" fill="#ff5757" fill-rule="nonzero"/><path d="M262.29 425.89l-30.5 36.625h-8.625l30.5-36.75-30.5-36.625 8.625-.125 30.5 36.875z" fill="#ff5757" fill-rule="nonzero"/><path d="M266.42 425.89l-30.5 36.625h-8.625l30.5-36.75-30.5-36.625 8.625-.125 30.5 36.875z" fill="#ff5757" fill-rule="nonzero"/><path d="M286.08 425.89l-30.5 36.625h-8.626l30.5-36.75-30.5-36.625 8.625-.125 30.5 36.875z" fill="#ff5757" fill-rule="nonzero"/><path d="M290.21 425.89l-30.5 36.625h-8.626l30.5-36.75-30.5-36.625 8.625-.125 30.5 36.875z" fill="#ff5757" fill-rule="nonzero"/><path d="M309.87 425.89l-30.5 36.625h-8.626l30.5-36.75-30.5-36.625 8.625-.125 30.5 36.875z" fill="#ff5757" fill-rule="nonzero"/><path d="M314 425.89l-30.5 36.625h-8.626l30.5-36.75-30.5-36.625 8.625-.125L314 425.89z" fill="#ff5757" fill-rule="nonzero"/><g><path d="M59.264 90.635c8.308.924 12.923 5.193 12.923 12.116 0 5.539-4.615 10.27-10.5 10.27-5.077 0-9.116-1.27-13.04-6.231l-14.769 10.846c8.193 9 18 12.578 27.809 12.578 15.116 0 29.078-12 29.078-28.732 0-16.616-12.116-26.54-26.77-27.462-9.116-.577-12-4.154-12-8.078 0-4.73 3.23-7.615 7.96-7.615 3.001 0 6.809 1.846 9.117 4.27l14.077-10.27c-6.577-7.847-14.654-11.078-23.193-11.078-11.885 0-25.27 10.27-25.27 24.809 0 13.5 9.692 22.847 24.578 24.577zM143.728 130.214c24.577 0 44.424-19.963 44.424-44.54 0-24.578-19.847-44.425-44.54-44.425-24.577 0-44.424 19.847-44.424 44.425 0 24.577 19.847 44.54 44.54 44.54zm-.116-71.887c14.54 0 26.194 12.23 26.194 27.347 0 15.346-11.54 27.347-26.078 27.347-14.77 0-26.193-12-26.193-27.347 0-15.116 11.423-27.347 26.077-27.347zM265.462 99.405c-6.23 9.231-15 13.731-23.885 13.731-14.424 0-25.847-12.231-25.847-27.347 0-15.231 11.423-27.462 25.847-27.462 8.539 0 17.193 4.5 23.078 13.73l13.962-9.922a43.372 43.372 0 00-37.155-20.886c-24.463 0-44.079 19.962-44.079 44.54s19.616 44.425 44.194 44.425c15.924 0 29.77-8.308 37.732-20.886l-13.847-9.923zM289.925 42.75h17.885v85.964h-17.885zM386.62 128.714h19.5l-45.462-87.465-45.348 87.465h18.462l5.539-11.54h41.655l5.654 11.54zM359.965 74.25l13.155 26.77h-26.078l12.923-26.77zM413.62 42.75v85.964h52.503v-16.155h-34.617V42.75h-17.885zM115.63 158.138v85.964h52.502v-16.154h-34.616v-69.81H115.63zM178.057 158.138h17.885v85.964h-17.885zM273.483 207.87l-61.156-51.347v87.58h17.885v-49.387l61.156 50.886v-87.464h-17.885v49.732zM325.638 158.138h-17.885v85.964h17.885v-22.731l9.577-9.577 32.194 32.308h24.116l-43.617-43.732 42.232-42.232h-23.885l-40.617 40.617v-40.617zM87.072 359.49v-14.885h10.27c22.731 0 37.385-15.23 37.385-37.27 0-18.693-15.462-33.809-35.654-33.809H69.187v85.965h17.885zm0-31.039v-38.77H97.92c12.462 0 18.808 8.538 18.808 19.039 0 12-7.154 19.731-19.847 19.731h-9.808zM197.383 359.49h19.5l-45.462-87.464-45.348 87.465h18.462l5.54-11.54h41.654l5.654 11.54zm-26.654-54.463l13.154 26.77h-26.078l12.924-26.77zM302.617 312.528H258.54v15.923h23.308c-3.807 10.039-13.385 15.347-23.77 15.347-14.423 0-25.846-12.116-25.846-27.232 0-15.231 11.423-27.462 25.847-27.462 10.154 0 19.039 5.77 23.539 14.192l14.308-10.384c-7.731-12.578-21.924-20.886-37.963-20.886-24.462 0-44.078 19.962-44.078 44.54s19.616 44.425 44.194 44.425c24.693 0 44.54-20.424 44.54-45.81v-2.653zM368.504 359.49v-16.154H333.08v-21.462h32.309V305.72h-32.31v-16.04h27.81v-16.154h-45.694v85.965h53.31zM401.967 321.412c8.308.924 12.923 5.193 12.923 12.116 0 5.539-4.615 10.27-10.5 10.27-5.077 0-9.116-1.27-13.04-6.231l-14.769 10.846c8.193 9 18 12.578 27.809 12.578 15.116 0 29.078-12 29.078-28.732 0-16.616-12.116-26.54-26.77-27.462-9.116-.577-12-4.154-12-8.078 0-4.73 3.23-7.615 7.961-7.615 3 0 6.808 1.846 9.116 4.27l14.077-10.27c-6.577-7.847-14.654-11.078-23.193-11.078-11.885 0-25.27 10.27-25.27 24.809 0 13.5 9.693 22.847 24.578 24.577z" fill-rule="nonzero"/></g></svg>